<?xml version="1.0" ?><!DOCTYPE svg  PUBLIC '-//W3C//DTD SVG 1.1//EN'  'http://www.w3.org/Graphics/SVG/1.1/DTD/svg11.dtd'><svg enable-background="new -273.275 -149.606 37.698 42.811" height="42.811px" id="Layer_1" version="1.1" viewBox="-273.275 -149.606 37.698 42.811" width="37.698px" xml:space="preserve" xmlns="http://www.w3.org/2000/svg" xmlns:xlink="http://www.w3.org/1999/xlink"><g><g><path d="M-248.649-115.008c-0.454,0-0.92-0.037-1.396-0.111c-3.418-0.53-5.742-3.975-5.29-7.84    c0.175-1.499,0.896-2.757,2.028-3.542c1.216-0.842,2.827-1.073,4.532-0.648c1.489,0.372,2.947,2.049,3.445,3.39    c0.423,1.139,0.363,2.304-0.169,3.28c-0.524,0.962-1.458,1.634-2.626,1.892c-0.92,0.205-1.841-0.315-2.732-0.818    c-0.168-0.095-0.338-0.189-0.509-0.281c-0.349-0.186-0.602-0.502-0.689-0.869c-0.088-0.364-0.014-0.741,0.209-1.062l1.637-2.349    c0.238-0.34,0.706-0.42,1.044-0.186c0.339,0.236,0.422,0.704,0.186,1.045l-1.521,2.183c0.128,0.069,0.254,0.141,0.38,0.212    c0.617,0.347,1.319,0.735,1.673,0.66c0.739-0.163,1.319-0.569,1.633-1.146c0.32-0.59,0.35-1.313,0.08-2.041    c-0.397-1.069-1.543-2.24-2.403-2.455c-1.279-0.317-2.458-0.166-3.315,0.428c-0.773,0.536-1.268,1.417-1.392,2.481    c-0.358,3.062,1.412,5.777,4.03,6.185c3.47,0.544,5.456-1.358,6.508-3.049c1.159-1.864,1.068-4.053-0.252-6.159    c-0.196-0.313-0.354-0.647-0.512-0.982c-0.064-0.138-0.129-0.273-0.196-0.41c-0.186-0.369-0.035-0.819,0.335-1.006    c0.371-0.185,0.821-0.036,1.006,0.336c0.073,0.146,0.143,0.295,0.212,0.443c0.132,0.281,0.262,0.563,0.425,0.823    c1.618,2.58,1.711,5.403,0.254,7.747C-243.598-116.343-245.914-115.009-248.649-115.008z"/></g><g><path d="M-243.427-129.002c-0.431,0-0.865-0.163-1.173-0.472l-1.059-1.059c-0.482-0.482-0.623-1.312-0.324-1.927l0.067-0.138    c0.257-0.53,0.705-1.065,1.104-1.353l2.109-1.526c0.335-0.242,0.806-0.167,1.048,0.169c0.241,0.336,0.167,0.805-0.17,1.047    l-2.11,1.526c-0.197,0.142-0.484,0.485-0.592,0.709c-0.001,0.002-0.045,0.092-0.048,0.094l-0.058,0.119    c-0.021,0.054,0,0.18,0.035,0.219l1.057,1.057c0.027,0.023,0.119,0.039,0.154,0.025c2.968-1.71,3.023-2.97,2.64-4.077    c-0.345-0.996-1.507-2.161-2.438-2.443c-1.536-0.468-2.934,0.219-3.738,1.829l-1,2.001c-0.185,0.371-0.636,0.521-1.007,0.334    c-0.37-0.186-0.521-0.636-0.334-1.007l0.999-1.998c1.125-2.252,3.29-3.271,5.516-2.595c1.386,0.42,2.919,1.94,3.42,3.388    c1.026,2.96-1.398,4.769-3.313,5.871C-242.879-129.068-243.153-129.002-243.427-129.002z"/></g><g><path d="M-259.587-139.448c-0.255,0-0.505-0.131-0.645-0.366c-1.421-2.389-0.556-6.114,1.852-7.976    c2.477-1.914,5.692-2.344,8.603-1.151c3.052,1.251,5.144,3.983,5.594,7.31c0.056,0.411-0.232,0.788-0.644,0.844    c-0.409,0.063-0.788-0.23-0.844-0.643c-0.377-2.788-2.126-5.077-4.676-6.123c-2.408-0.986-5.068-0.631-7.116,0.951    c-1.814,1.402-2.521,4.271-1.479,6.021c0.212,0.356,0.095,0.816-0.262,1.028C-259.325-139.481-259.457-139.448-259.587-139.448z"/></g><g><path d="M-267.103-131.76c-0.228,0-0.446-0.031-0.638-0.096c-3.659-1.257-4.665-4.039-5.448-7.023    c-0.121-0.457-0.132-1.201,0.081-1.739c1.017-2.564,3.133-4.323,5.661-4.707c2.622-0.396,5.281,0.722,7.108,2.991    c0.259,0.323,0.208,0.795-0.114,1.056c-0.321,0.26-0.794,0.209-1.055-0.114c-1.489-1.851-3.626-2.765-5.716-2.448    c-2.024,0.306-3.661,1.683-4.491,3.776c-0.069,0.175-0.082,0.588-0.024,0.804c0.727,2.77,1.519,4.968,4.482,5.986    c0.118,0.041,0.441,0.007,0.593-0.082l3.698-2.157c0.357-0.208,0.817-0.088,1.025,0.271s0.087,0.817-0.271,1.025l-3.699,2.158    C-266.245-131.865-266.687-131.76-267.103-131.76z"/></g><g><path d="M-266.237-111.781c-0.409,0-0.83-0.028-1.265-0.093c-0.632-0.093-1.262-0.639-1.466-1.269l-2.414-7.461    c-0.192-0.596-0.041-1.375,0.359-1.856l1.038-1.24c0.206-0.245,0.435-0.645,0.48-0.838c0.229-0.947,0.045-1.904-0.148-2.919    c-0.325-1.701-0.693-3.631,1.241-5.311c0.313-0.272,0.787-0.238,1.059,0.075c0.271,0.313,0.238,0.786-0.075,1.058    c-1.224,1.063-1.092,2.119-0.752,3.896c0.205,1.072,0.437,2.287,0.134,3.551c-0.117,0.488-0.491,1.095-0.789,1.449l-1.038,1.24    c-0.068,0.083-0.117,0.327-0.083,0.434l2.414,7.461c0.03,0.093,0.186,0.229,0.258,0.246c2.681,0.396,4.834-0.798,7.116-2.059    c0.951-0.524,1.936-1.067,2.958-1.486c0.386-0.157,0.822,0.026,0.979,0.409c0.156,0.385-0.027,0.821-0.41,0.979    c-0.943,0.386-1.846,0.884-2.801,1.412C-261.512-112.959-263.645-111.781-266.237-111.781z"/></g><g><path d="M-256.259-139.115c-0.381,0-0.708-0.288-0.746-0.677c-0.034-0.347-0.076-0.693-0.118-1.042    c-0.092-0.763-0.188-1.553-0.202-2.351c-0.053-2.8,2.308-3.137,3.717-3.337l0.247-0.036c1.137-0.167,4.16-0.613,4.726,2.236    c0.184,0.936-0.319,1.846-0.806,2.727l-0.235,0.432c-0.266,0.503-0.868,1.011-1.511,0.946c-0.603-0.064-1.138-0.576-1.381-1.024    l-0.684-1.266c-0.197-0.364-0.062-0.82,0.302-1.017c0.365-0.199,0.819-0.063,1.018,0.302l0.683,1.267    c0.042,0.077,0.111,0.148,0.17,0.196c0.027-0.028,0.056-0.064,0.077-0.105l0.249-0.457c0.34-0.614,0.726-1.312,0.647-1.709    c-0.213-1.068-1.009-1.345-3.036-1.043l-0.254,0.037c-1.745,0.249-2.453,0.483-2.429,1.824c0.014,0.722,0.1,1.439,0.191,2.199    c0.043,0.357,0.086,0.716,0.122,1.075c0.041,0.412-0.261,0.778-0.673,0.819C-256.209-139.116-256.234-139.115-256.259-139.115z"/></g><g><path d="M-256.4-126.261c-0.633,0-1.313-0.1-2.036-0.304c-4.028-1.138-4.282-4.637-4.528-8.021l-0.035-0.468    c-0.047-0.633,0.292-1.355,0.807-1.718l4.475-3.158c0.485-0.347,1.261-0.461,1.843-0.27c4.458,1.5,6.19,1.432,8.424-0.33    c2.896-2.287,5.316-1.24,7.548,0.024c2.607,1.48,4.182,3.676,4.317,6.024c0.126,2.172-1.022,4.26-3.234,5.88    c-2.323,1.703-5.617,1.452-8.192-0.623c-0.362-0.294-0.79-0.803-1.027-1.154l-4.837-7.066c-0.083-0.121-0.125-0.258-0.13-0.395    c-0.995-0.194-2.09-0.517-3.343-0.938c-0.123-0.04-0.398-0.004-0.499,0.068l-4.479,3.161c-0.083,0.06-0.183,0.275-0.175,0.38    l0.035,0.472c0.263,3.616,0.569,5.875,3.438,6.685c2.462,0.692,4.063-0.056,4.756-2.228c0.057-0.175,0.038-0.586-0.036-0.802    l-1.041-3.036c-0.034-0.099-0.199-0.24-0.278-0.256c-2.317-0.375-3.626,0.187-4.521,1.929c-0.021,0.051-0.009,0.181,0.022,0.225    c0.926,0.88,1.808,0.505,3.283-0.239l0.251-0.126c0.371-0.184,0.821-0.034,1.006,0.337c0.186,0.371,0.034,0.821-0.337,1.006    l-0.245,0.123c-1.449,0.729-3.254,1.64-4.999-0.022c-0.507-0.478-0.646-1.354-0.313-1.991c1.197-2.33,3.132-3.196,6.091-2.721    c0.632,0.101,1.247,0.627,1.459,1.251l1.041,3.036c0.156,0.455,0.222,1.2,0.045,1.747    C-252.578-127.479-254.193-126.261-256.4-126.261z M-251.188-137.631l4.39,6.414c0.19,0.283,0.529,0.668,0.729,0.831    c2.039,1.643,4.596,1.874,6.362,0.578c1.813-1.327,2.722-2.912,2.625-4.583c-0.105-1.83-1.403-3.582-3.561-4.807    c-2.343-1.329-3.896-1.719-5.878-0.151C-248.093-138.111-249.513-137.615-251.188-137.631z"/></g><g><path d="M-261.922-135.449c-0.329,0-0.63-0.218-0.722-0.55l-0.883-3.178c-0.045-0.165-0.245-0.396-0.376-0.454l-1.887-0.835    c-0.062-0.028-0.236,0.001-0.292,0.05l-2.594,2.361c0.542,0.711,0.889,0.841,1.045,0.854c0.315,0.045,0.71-0.357,1.101-0.729    c0.405-0.386,0.826-0.785,1.358-0.976c0.391-0.139,0.819,0.064,0.958,0.455c0.14,0.392-0.063,0.819-0.455,0.958    c-0.233,0.083-0.537,0.372-0.831,0.65c-0.568,0.54-1.281,1.207-2.25,1.136c-0.73-0.058-1.43-0.534-2.135-1.455    c-0.455-0.588-0.367-1.487,0.197-2.003l2.594-2.361c0.494-0.448,1.295-0.58,1.907-0.314l1.891,0.838    c0.542,0.241,1.049,0.829,1.206,1.397l0.891,3.206c0.11,0.398-0.124,0.812-0.523,0.922    C-261.789-135.458-261.856-135.449-261.922-135.449z"/></g><g><path d="M-248.26-107.461c-0.192,0-0.384-0.073-0.53-0.22l-0.32-0.328c-0.211-0.218-0.422-0.437-0.648-0.637    c-1.638-1.449-4.38-3.875-2.144-7.613c0.212-0.356,0.674-0.471,1.027-0.259c0.355,0.213,0.473,0.673,0.259,1.027    c-1.35,2.258-0.436,3.697,1.853,5.722c0.255,0.226,0.493,0.471,0.73,0.717l0.305,0.311c0.293,0.293,0.293,0.769,0,1.062    C-247.876-107.534-248.068-107.461-248.26-107.461z"/></g><g><path d="M-261.256-106.795c-0.394,0-0.725-0.308-0.748-0.706l-0.332-5.665c-0.023-0.413,0.291-0.769,0.705-0.793    c0.415-0.03,0.769,0.292,0.792,0.705l0.332,5.665c0.024,0.413-0.291,0.77-0.705,0.793    C-261.227-106.795-261.242-106.795-261.256-106.795z"/></g><g><path d="M-261.587-124.455c-0.038,0-0.076-0.003-0.115-0.009l-4.332-0.666c-0.408-0.063-0.689-0.445-0.627-0.854    c0.063-0.41,0.448-0.693,0.855-0.628l4.332,0.666c0.409,0.063,0.689,0.444,0.627,0.854    C-260.903-124.721-261.223-124.455-261.587-124.455z"/></g><g><path d="M-247.928-129.453h-3.998c-0.414,0-0.75-0.336-0.75-0.75s0.336-0.75,0.75-0.75h3.998c0.414,0,0.75,0.336,0.75,0.75    S-247.514-129.453-247.928-129.453z"/></g></g></svg>