<?xml version="1.0" ?><svg id="Layer_1" style="enable-background:new 0 0 48 48;" version="1.1" viewBox="0 0 48 48" xml:space="preserve" xmlns="http://www.w3.org/2000/svg" xmlns:xlink="http://www.w3.org/1999/xlink"><g><g><path d="M24,42c-0.2,0-0.4-0.1-0.6-0.2c-0.5-0.4-13-9.1-13.4-22c-0.1-3.6,1.3-7,3.8-9.6C16.5,7.5,20.2,6,24,6    c3.8,0,7.5,1.5,10.1,4.2c2.6,2.6,4,6,3.9,9.6l0,0c-0.3,13.6-12.9,21.7-13.4,22.1C24.4,41.9,24.2,42,24,42z M24,8    c-3.3,0-6.4,1.3-8.7,3.6c-2.2,2.2-3.3,5.1-3.2,8.1c0.3,10.5,9.6,18.2,12,20c2.4-1.7,11.7-9.1,11.9-20c0.1-3-1.1-5.9-3.3-8.2    C30.4,9.3,27.2,8,24,8z M37,19.7L37,19.7L37,19.7z"/></g><g><path d="M24,26.7c-3.9,0-7.1-3.1-7.1-6.9s3.2-6.9,7.1-6.9s7.1,3.1,7.1,6.9S27.9,26.7,24,26.7z M24,14.8c-2.8,0-5,2.2-5,4.9    s2.3,4.9,5,4.9s5-2.2,5-4.9S26.8,14.8,24,14.8z"/></g></g></svg>