<?xml version="1.0" ?><svg data-name="Layer 1" id="Layer_1" viewBox="0 0 128 128" xmlns="http://www.w3.org/2000/svg"><defs><style>.cls-1{fill:none;stroke:#000;stroke-miterlimit:10;stroke-width:8px;}</style></defs><title/><path d="M104,8a16,16,0,0,1,16,16v80a16,16,0,0,1-16,16H24A16,16,0,0,1,8,104V24A16,16,0,0,1,24,8h80m0-8H24A24.07,24.07,0,0,0,0,24v80a24.07,24.07,0,0,0,24,24h80a24.07,24.07,0,0,0,24-24V24A24.07,24.07,0,0,0,104,0Z"/><circle cx="82" cy="46" r="5"/><path d="M64,48A16,16,0,1,0,80,64,16,16,0,0,0,64,48Zm0,24a8,8,0,1,1,8-8A8,8,0,0,1,64,72Z"/><rect class="cls-1" height="64" rx="12" ry="12" width="64" x="32" y="32"/></svg>