<?xml version="1.0" ?><!DOCTYPE svg  PUBLIC '-//W3C//DTD SVG 1.1//EN'  'http://www.w3.org/Graphics/SVG/1.1/DTD/svg11.dtd'><svg enable-background="new 0 0 64 64" height="64px" id="Layer_1" version="1.1" viewBox="0 0 64 64" width="64px" xml:space="preserve" xmlns="http://www.w3.org/2000/svg" xmlns:xlink="http://www.w3.org/1999/xlink"><g><path d="M37.314,9.573V6.12c1.266-0.342,2.189-1.504,2.189-2.873V2.979c0-1.638-1.326-2.978-2.979-2.978h-9.051   c-1.653,0-2.978,1.34-2.978,2.978v0.268c0,1.369,0.923,2.531,2.188,2.873v3.453c-5.315,2.114-9.08,7.31-9.08,13.399   c0,0.177,0,0.372,0.015,0.549v0.076c0,0.029,0.015,0.074,0.015,0.134c0,0.044,0.015,0.104,0.015,0.163   c0.061,0.448,0.18,1.266,0.328,2.352c0.015,0.03,0.015,0.061,0.015,0.09c0.939,6.803,3.259,23.848,3.259,26.527v8.158   c0,1.637,1.34,2.977,2.977,2.977h15.543c1.637,0,2.977-1.34,2.977-2.977v-6.744c0-1.949,2.396-21.033,3.289-28.12v-0.016   c0.211-1.623,0.344-2.62,0.344-2.62c0.014-0.177,0.014-0.372,0.014-0.549C46.395,16.883,42.629,11.688,37.314,9.573z    M43.033,23.266c0,0-0.102,0.765-0.262,2.009v0.012c-0.65,5.158-2.336,18.581-2.506,21.223l-0.002-0.006   c0,0-0.002,0.043-0.002,0.061c-0.008,0.111-0.014,0.232-0.014,0.299v0.229c-0.061,2.045-0.301,8.939-0.877,11.836   c-0.133,0.516-0.477,1.309-1.357,1.605c-0.238,0.064-0.482,0.123-0.742,0.123h-9.831c-2.362,0-2.791-1.764-2.873-2.457   c-0.247-2.945-0.622-8.947-0.815-12.107v-0.312c0-0.318-0.046-0.922-0.121-1.695c-0.003-0.029-0.003-0.045-0.003-0.045   l-0.001,0.004c-0.413-4.262-1.769-14.221-2.377-18.62c0-0.023,0-0.044-0.012-0.067c-0.113-0.834-0.205-1.462-0.25-1.806   c0-0.046-0.011-0.093-0.011-0.125c0-0.046-0.012-0.082-0.012-0.105v-0.055c-0.012-0.137-0.012-0.288-0.012-0.425   c0-4.162,2.3-7.768,5.684-9.655l-0.006-0.006c0,0,0.321-0.179,0.86-0.409c0.146-0.065,0.281-0.149,0.429-0.209   c0.205-0.077,0.426-0.141,0.654-0.196c2.116-0.697,5.623-1.288,8.796,0.814c0.02,0.013,0.033,0.025,0.055,0.039   c3.348,1.896,5.617,5.487,5.617,9.623C43.045,22.978,43.045,23.129,43.033,23.266z" fill="#241F20"/><path d="M30.313,26.67V46.1c-0.429,0.746-1.032,0-1.032,0L26.807,26.67h-2.963l0.718,5.774l1.954,18.325l0,0   l0.485,5.146c0,0.756,0.625,1.383,1.384,1.383h7.228c0.512,0,0.949-0.299,1.188-0.719c0.004-0.002,0.014,0.004,0.018,0   c0.006-0.008,0.012-0.031,0.018-0.053c0.043-0.082,0.074-0.168,0.104-0.256h0.002c0,0,0.002-0.012,0.004-0.014   c0.014-0.049,0.018-0.1,0.027-0.152c0.076-0.434,0.285-1.746,0.336-3.449c0.475-4.703,1.09-11.957,1.09-11.957v0.002   c0.047-0.363,0.09-0.705,0.127-0.994v-0.012c0.062-0.484,0.117-0.848,0.129-1.045h0.016l1.486-11.98H30.313z" fill="#241F20"/></g></svg>