<?xml version="1.0" ?><!DOCTYPE svg  PUBLIC '-//W3C//DTD SVG 1.1//EN'  'http://www.w3.org/Graphics/SVG/1.1/DTD/svg11.dtd'><svg enable-background="new 0 0 1024 1024" height="1024px" version="1.1" viewBox="0 0 1024 1024" width="1024px" xml:space="preserve" xmlns="http://www.w3.org/2000/svg" xmlns:xlink="http://www.w3.org/1999/xlink"><g id="Background"><rect fill="none" height="964" id="bg_1_" stroke="#09D261" stroke-miterlimit="10" stroke-width="60" width="963.984" x="30.008" y="30"/></g><g id="Whatsapp"><path d="M725.683,297.42C670.012,240.111,593.048,209,514.455,209   c-167.024,0-301.291,135.905-299.652,301.289c0,52.393,14.736,103.166,39.298,149.01l-42.575,155.559l158.836-40.938   c44.205,24.563,93.33,36.028,142.453,36.028l0,0c165.383,0,299.66-135.905,299.66-301.297   C812.475,428.417,781.356,353.093,725.683,297.42z M514.455,759.178L514.455,759.178c-44.214,0-88.423-11.45-126.089-34.381   l-9.818-4.909l-94.976,24.562l24.561-93.337l-6.547-9.819c-72.047-116.268-37.659-270.187,80.232-342.232   c117.9-72.047,270.18-37.659,342.227,80.232c72.054,117.901,37.666,270.188-80.233,342.225   C606.152,746.081,560.299,759.178,514.455,759.178z M658.546,577.426l-18.006-8.186c0,0-26.199-11.467-42.576-19.655   c-1.637,0-3.275-1.629-4.916-1.629c-4.908,0-8.187,1.629-11.456,3.276l0,0c0,0-1.641,1.632-24.563,27.826   c-1.639,3.277-4.918,4.924-8.187,4.924h-1.639c-1.641,0-4.91-1.646-6.548-3.277l-8.188-3.279l0,0   c-18.014-8.186-34.391-18.004-47.486-31.116c-3.276-3.264-8.187-6.543-11.466-9.819c-11.465-11.465-22.923-24.562-31.109-39.296   l-1.64-3.28c-1.638-1.639-1.638-3.27-3.277-6.548c0-3.278,0-6.548,1.64-8.187c0,0,6.549-8.188,11.464-13.097   c3.271-3.278,4.911-8.188,8.188-11.466c3.27-4.908,4.909-11.466,3.27-16.373c-1.63-8.188-21.284-52.402-26.192-62.221   c-3.278-4.917-6.558-6.557-11.465-8.188h-4.909c-3.278,0-8.188,0-13.104,0c-3.271,0-6.549,1.631-9.826,1.631l-1.631,1.64   c-3.278,1.639-6.558,4.917-9.827,6.547c-3.278,3.279-4.917,6.558-8.187,9.827c-11.466,14.735-18.014,32.749-18.014,50.764l0,0   c0,13.095,3.278,26.2,8.186,37.657l1.641,4.917c14.735,31.11,34.387,58.948,60.579,83.51l6.558,6.542   c4.908,4.924,9.819,8.188,13.097,13.112c34.388,29.473,73.686,50.754,117.9,62.219c4.908,1.633,11.456,1.633,16.372,3.279l0,0   c4.911,0,11.46,0,16.377,0c8.188,0,18.005-3.279,24.561-6.555c4.908-3.28,8.189-3.28,11.458-6.559l3.279-3.261   c3.268-3.278,6.548-4.926,9.825-8.188c3.27-3.278,6.549-6.557,8.187-9.834c3.27-6.541,4.91-14.729,6.549-22.915   c0-3.277,0-8.188,0-11.465C663.464,580.706,661.825,579.059,658.546,577.426z" fill="#09D261" id="Whatsapp_1_"/></g></svg>