<?xml version="1.0" ?><!DOCTYPE svg  PUBLIC '-//W3C//DTD SVG 1.1//EN'  'http://www.w3.org/Graphics/SVG/1.1/DTD/svg11.dtd'><svg enable-background="new 0 0 24 24" height="24px" id="Layer_1" version="1.1" viewBox="0 0 24 24" width="24px" xml:space="preserve" xmlns="http://www.w3.org/2000/svg" xmlns:xlink="http://www.w3.org/1999/xlink"><g><g><path d="M19.7,23.5H4.3c-2.1,0-3.8-1.7-3.8-3.8V4.3c0-2.1,1.7-3.8,3.8-3.8h15.3c2.1,0,3.8,1.7,3.8,3.8v15.3    C23.5,21.8,21.8,23.5,19.7,23.5z M4.3,1.5c-1.6,0-2.8,1.3-2.8,2.8v15.3c0,1.6,1.3,2.8,2.8,2.8h15.3c1.6,0,2.8-1.3,2.8-2.8V4.3    c0-1.6-1.3-2.8-2.8-2.8H4.3z"/></g><g><g id="Lozenge_2_"><g><path d="M12,18.1C12,18.1,12,18.1,12,18.1c-0.2,0-4,0-5.2-0.2c-0.1,0-0.1,0-0.2,0c-0.4,0-1.2-0.1-1.8-0.8      C4.2,16.5,4,15.4,4,15.3c0-0.1-0.2-1.3-0.2-2.6v-1.2C3.9,10.1,4,8.8,4,8.8c0-0.1,0.2-1.3,0.7-1.9c0.7-0.7,1.4-0.8,1.8-0.8      c0,0,0.1,0,0.1,0C8.7,5.9,12,5.9,12,5.9c0,0,3.3,0,5.4,0.2c0,0,0.1,0,0.1,0c0.4,0,1.1,0.1,1.8,0.8C19.8,7.5,20,8.6,20,8.7      c0,0.1,0.2,1.3,0.2,2.6v1.2c0,1.3-0.2,2.6-0.2,2.6c0,0.1-0.2,1.3-0.7,1.9c-0.6,0.7-1.4,0.8-1.7,0.8c0,0-0.1,0-0.1,0      C15.3,18.1,12,18.1,12,18.1z M12,6.9c0,0-3.2,0-5.3,0.2c-0.4,0-0.8,0.1-1.2,0.5C5.2,7.9,5,8.6,5,8.9c0,0-0.1,1.3-0.1,2.5v1.2      c0,1.2,0.1,2.5,0.1,2.5c0,0.4,0.2,1,0.5,1.3c0.4,0.4,0.8,0.5,1.2,0.5c0.1,0,0.2,0,0.2,0c1.1,0.1,5,0.2,5.1,0.2      c0.1,0,3.2,0,5.3-0.2l0.1,0c0.3,0,0.7-0.1,1.1-0.5c0.3-0.3,0.4-0.9,0.5-1.3c0,0,0.1-1.3,0.1-2.5v-1.2c0-1.2-0.1-2.5-0.2-2.5      c0-0.4-0.2-1-0.5-1.3c-0.4-0.4-0.8-0.5-1.1-0.5c0,0-0.1,0-0.1,0C15.2,6.9,12,6.9,12,6.9z M10.4,14.6c-0.1,0-0.2,0-0.3-0.1      c-0.2-0.1-0.2-0.3-0.2-0.4l0-4.5c0-0.2,0.1-0.3,0.2-0.4c0.2-0.1,0.3-0.1,0.5,0l4.1,2.2c0.2,0.1,0.3,0.3,0.3,0.4      c0,0.2-0.1,0.4-0.3,0.4l-4.1,2.2C10.6,14.5,10.5,14.6,10.4,14.6z M10.9,10.4l0,2.8l2.6-1.4L10.9,10.4z"/></g></g></g></g></svg>